# xmcd
#
# Track frame offsets: 
#        150
#        14236
#        29390
#        46280
#        61638
#        75673
#        92071
#        106318
#        122798
#        137850
#        159534
#        173657
#        194310
#        210949
#        233785
#
# Disc length: 3325 seconds
#
# Revision: 0
# Processed by: cddbd v1.5.2PL0 Copyright (c) Steve Scherf et al.
# Submitted via: ExactAudioCopy v1.3
#
DISCID=c10cfb0f
DTITLE=Ina Forsman With Helge Tallqvist Band - Ina Forsman With Helge 
DTITLE=Tallqvist Band
DYEAR=2013
DGENRE=Blues Rock
TTITLE0=Something's Got A Hold On Me
TTITLE1=What Have I Done
TTITLE2=Queen Bee
TTITLE3=5-10-15 Hours
TTITLE4=I'd Rather Go Blind
TTITLE5=That's All I Need
TTITLE6=Got Love If You Want It
TTITLE7=I Got Trouble
TTITLE8=He Belongs To Me
TTITLE9=Number 9 Train
TTITLE10=Willie And The Hand Jive
TTITLE11=All I Could Do Is Cry
TTITLE12=What Have I Done Wrong
TTITLE13=Every Night About This Time
TTITLE14=Slow Walk Honky Tonk
EXTD=
EXTT0=
EXTT1=
EXTT2=
EXTT3=
EXTT4=
EXTT5=
EXTT6=
EXTT7=
EXTT8=
EXTT9=
EXTT10=
EXTT11=
EXTT12=
EXTT13=
EXTT14=
PLAYORDER=
